<svg version="1.1" viewBox="0 0 313.11 90.84" xmlns="http://www.w3.org/2000/svg">
 <defs>
  <style>.cls-1{fill:#fff;}</style>
 </defs>
 <g fill="#fff" data-name="Layer 2">
  <g fill="#fff" data-name="Layer 1">
   <path class="cls-1" d="M102.57,48.05V69.61H92.47V11.48h22.24q9.74,0,15.47,5.07A17.07,17.07,0,0,1,135.91,30q0,8.56-5.61,13.31t-15.71,4.76Zm0-8.14h12.14q5.39,0,8.22-2.54T125.77,30a10,10,0,0,0-2.88-7.52,11.08,11.08,0,0,0-7.9-2.9H102.57Z"/>
   <path class="cls-1" d="M159.51,55.72l8.78-29.31h10.34L161.46,76.16q-3.94,10.91-13.41,10.9a17.32,17.32,0,0,1-4.67-.72V78.8l1.83.12a9.46,9.46,0,0,0,5.53-1.34,8.86,8.86,0,0,0,2.94-4.49l1.39-3.71-15.17-43h10.46Z"/>
   <path class="cls-1" d="m201.83 44.5-6.59 7v18.11h-10.1v-58.13h10.1v27.27l5.59-6.91 17-20.36h12.22l-21.6 25.75 22.85 32.38h-12z"/>
   <path class="cls-1" d="m235.77 15.15a5.19 5.19 0 0 1 1.42-3.74 5.32 5.32 0 0 1 4.05-1.49 5.38 5.38 0 0 1 4.07 1.49 5.16 5.16 0 0 1 1.44 3.74 5 5 0 0 1-1.44 3.68 5.41 5.41 0 0 1-4.07 1.47 5.35 5.35 0 0 1-4.05-1.47 5.06 5.06 0 0 1-1.42-3.68zm10.3 54.46h-9.7v-43.2h9.7z"/>
   <path class="cls-1" d="M267,69.61h-9.71V8.28H267Z"/>
   <path class="cls-1" d="M286.52,26.41l.28,5a15.53,15.53,0,0,1,12.58-5.79q13.49,0,13.73,15.45V69.61h-9.7v-28q0-4.11-1.78-6.09t-5.81-2a9.35,9.35,0,0,0-8.74,5.31V69.61h-9.7V26.41Z"/>
   <path class="cls-1" d="M37.81,0a.85.85,0,0,0-.23,0,.78.78,0,0,0-.22,0C32.11,1.41,0,48.72,0,53.83c0,20,16.06,36.23,36.15,37,.45,0,.92,0,1.43,0s1.17,0,1.7,0c20-.87,35.88-17.08,35.88-37C75.16,48.73,43.1,1.49,37.81,0Zm.49,77.88-.72,0-.61,0c-8.55-.26-15.38-6.06-15.38-13.18,0-1.82,13.66-18.68,15.9-19.18h.19c2.25.52,15.89,17.36,15.89,19.18C53.57,71.82,46.8,77.6,38.3,77.91Z"/>
  </g>
 </g>
</svg>
