<?xml version="1.0" encoding="UTF-8"?>
<!-- Generator: Adobe Illustrator 24.2.1, SVG Export Plug-In . SVG Version: 6.00 Build 0)  -->
<svg enable-background="new 0 0 500 500" version="1.1" viewBox="0 0 500 500" xml:space="preserve" xmlns="http://www.w3.org/2000/svg" xmlns:cc="http://creativecommons.org/ns#" xmlns:dc="http://purl.org/dc/elements/1.1/" xmlns:rdf="http://www.w3.org/1999/02/22-rdf-syntax-ns#"><metadata><rdf:RDF><cc:Work rdf:about=""><dc:format>image/svg+xml</dc:format><dc:type rdf:resource="http://purl.org/dc/dcmitype/StillImage"/><dc:title/></cc:Work></rdf:RDF></metadata>
<style type="text/css">
	.st0{fill:#FFFFFF;stroke:#9E9D9E;stroke-width:18;stroke-linejoin:round;stroke-miterlimit:10;}
	.st1{fill:#9D9C9E;}
	.st2{fill:#9D9C9E;stroke:#9E9D9E;stroke-width:18;stroke-linejoin:round;stroke-miterlimit:10;}
	.st3{fill:#D25827;}
	.st4{fill:#1E1E1E;}
	.st5{fill:#FFFFFF;}
</style>


<g transform="translate(3)">
		<path class="st4" d="m351.13 199.39c-10.45 0-18.95-8.5-18.95-18.95s8.5-18.95 18.95-18.95c6.66 0 12.68 3.41 16.12 9.01h91.69v20.29h-91.94c-3.49 5.34-9.41 8.6-15.87 8.6z" fill="#1e1e1e"/>
		<path class="st5" d="m351.13 164.49c6.32 0 11.76 3.68 14.34 9.01h90.46v14.29h-90.65c-2.66 5.11-7.99 8.61-14.15 8.61-8.81 0-15.95-7.14-15.95-15.95 0-8.82 7.14-15.96 15.95-15.96m0-6c-12.1 0-21.95 9.85-21.95 21.95s9.85 21.95 21.95 21.95c6.92 0 13.31-3.22 17.42-8.61h93.38v-26.29h-93.08c-4.09-5.63-10.58-9-17.72-9z" fill="#fff"/>
	</g><g transform="translate(3)">
		<path class="st4" d="m351.13 352.99c-10.45 0-18.95-8.5-18.95-18.95s8.5-18.95 18.95-18.95c6.66 0 12.68 3.41 16.12 9.01h91.69v20.29h-91.94c-3.49 5.34-9.41 8.6-15.87 8.6z" fill="#1e1e1e"/>
		<path class="st5" d="m351.13 318.09c6.32 0 11.76 3.68 14.34 9.01h90.46v14.29h-90.65c-2.66 5.11-7.99 8.61-14.15 8.61-8.81 0-15.95-7.14-15.95-15.95 0-8.82 7.14-15.96 15.95-15.96m0-6c-12.1 0-21.95 9.85-21.95 21.95s9.85 21.95 21.95 21.95c6.92 0 13.31-3.22 17.42-8.61h93.38v-26.29h-93.08c-4.09-5.63-10.58-9-17.72-9z" fill="#fff"/>
	</g>
</svg>
