<?xml version="1.0" encoding="UTF-8"?>
<!-- Generator: Adobe Illustrator 24.2.1, SVG Export Plug-In . SVG Version: 6.00 Build 0)  -->
<svg enable-background="new 0 0 500 500" version="1.1" viewBox="0 0 500 500" xml:space="preserve" xmlns="http://www.w3.org/2000/svg" xmlns:cc="http://creativecommons.org/ns#" xmlns:dc="http://purl.org/dc/elements/1.1/" xmlns:rdf="http://www.w3.org/1999/02/22-rdf-syntax-ns#"><metadata><rdf:RDF><cc:Work rdf:about=""><dc:format>image/svg+xml</dc:format><dc:type rdf:resource="http://purl.org/dc/dcmitype/StillImage"/><dc:title/></cc:Work></rdf:RDF></metadata>
<style type="text/css">
	.st0{fill:#FFFFFF;stroke:#9E9D9E;stroke-width:18;stroke-linejoin:round;stroke-miterlimit:10;}
	.st1{fill:#9D9C9E;}
	.st2{fill:#9D9C9E;stroke:#9E9D9E;stroke-width:18;stroke-linejoin:round;stroke-miterlimit:10;}
	.st3{fill:#D25827;}
	.st4{fill:#1E1E1E;}
	.st5{fill:#FFFFFF;}
</style>

	<path class="st0" d="m412.5 458.24h-325c-20.71 0-37.5-16.79-37.5-37.5v-325c0-20.71 16.79-37.5 37.5-37.5h325c20.71 0 37.5 16.79 37.5 37.5v325c0 20.71-16.79 37.5-37.5 37.5z"/>
	
		<rect class="st1" x="62.51" y="457.37" width="67.37" height="40"/>
		<rect class="st1" x="370.11" y="457.37" width="67.37" height="40"/>
	
	<path class="st2" d="m62.58 57.85h374.84c6.95 0 12.58-5.63 12.58-12.58v-19.84c0-6.95-5.63-12.58-12.58-12.58h-374.84c-6.95 0-12.58 5.63-12.58 12.58v19.84c0 6.95 5.63 12.58 12.58 12.58z"/>



</svg>
