<?xml version="1.0" encoding="UTF-8" standalone="no"?>
<!-- Generator: Adobe Illustrator 24.2.1, SVG Export Plug-In . SVG Version: 6.00 Build 0)  -->

<svg
   xmlns:dc="http://purl.org/dc/elements/1.1/"
   xmlns:cc="http://creativecommons.org/ns#"
   xmlns:rdf="http://www.w3.org/1999/02/22-rdf-syntax-ns#"
   xmlns:svg="http://www.w3.org/2000/svg"
   xmlns="http://www.w3.org/2000/svg"
   xmlns:sodipodi="http://sodipodi.sourceforge.net/DTD/sodipodi-0.dtd"
   xmlns:inkscape="http://www.inkscape.org/namespaces/inkscape"
   version="1.1"
   x="0px"
   y="0px"
   viewBox="0 0 500 500"
   style="enable-background:new 0 0 500 500;"
   xml:space="preserve"
   id="svg957"
   sodipodi:docname="kiln-icon-02.svg"
   inkscape:version="0.92.4 (5da689c313, 2019-01-14)"><metadata
   id="metadata963"><rdf:RDF><cc:Work
       rdf:about=""><dc:format>image/svg+xml</dc:format><dc:type
         rdf:resource="http://purl.org/dc/dcmitype/StillImage" /><dc:title></dc:title></cc:Work></rdf:RDF></metadata><defs
   id="defs961">
	
	
	
	
	
	
</defs><sodipodi:namedview
   pagecolor="#ffffff"
   bordercolor="#666666"
   borderopacity="1"
   objecttolerance="10"
   gridtolerance="10"
   guidetolerance="10"
   inkscape:pageopacity="0"
   inkscape:pageshadow="2"
   inkscape:window-width="1906"
   inkscape:window-height="1271"
   id="namedview959"
   showgrid="false"
   inkscape:zoom="1.3031978"
   inkscape:cx="132.95992"
   inkscape:cy="259.59636"
   inkscape:window-x="245"
   inkscape:window-y="173"
   inkscape:window-maximized="0"
   inkscape:current-layer="svg957" />
<style
   type="text/css"
   id="style890">
	.st0{fill:#FFFFFF;stroke:#9E9D9E;stroke-width:18;stroke-linejoin:round;stroke-miterlimit:10;}
	.st1{fill:#9D9C9E;}
	.st2{fill:#9D9C9E;stroke:#9E9D9E;stroke-width:18;stroke-linejoin:round;stroke-miterlimit:10;}
	.st3{fill:#D25827;}
	.st4{fill:#1E1E1E;}
	.st5{fill:#FFFFFF;}
</style>


<g
   id="g924"
   transform="translate(3)">
		<path
   style="fill:#1e1e1e"
   inkscape:connector-curvature="0"
   id="path920"
   d="m 351.13,148.19 c -10.45,0 -18.95,-8.5 -18.95,-18.95 0,-10.45 8.5,-18.95 18.95,-18.95 6.66,0 12.68,3.41 16.12,9.01 h 91.69 v 20.29 H 367 c -3.49,5.34 -9.41,8.6 -15.87,8.6 z"
   class="st4" />
		<path
   style="fill:#ffffff"
   inkscape:connector-curvature="0"
   id="path922"
   d="m 351.13,113.29 c 6.32,0 11.76,3.68 14.34,9.01 h 90.46 v 14.29 h -90.65 c -2.66,5.11 -7.99,8.61 -14.15,8.61 -8.81,0 -15.95,-7.14 -15.95,-15.95 0,-8.82 7.14,-15.96 15.95,-15.96 m 0,-6 c -12.1,0 -21.95,9.85 -21.95,21.95 0,12.1 9.85,21.95 21.95,21.95 6.92,0 13.31,-3.22 17.42,-8.61 h 87.38 6 v -6 -14.29 -6 h -6 -87.08 c -4.09,-5.63 -10.58,-9 -17.72,-9 z"
   class="st5" />
	</g><g
   id="g936"
   transform="translate(3,-38.400024)">
		<path
   style="fill:#1e1e1e"
   inkscape:connector-curvature="0"
   id="path932"
   d="m 351.13,250.59 c -10.45,0 -18.95,-8.5 -18.95,-18.95 0,-10.45 8.5,-18.95 18.95,-18.95 6.66,0 12.68,3.41 16.12,9.01 h 91.69 v 20.29 H 367 c -3.49,5.34 -9.41,8.6 -15.87,8.6 z"
   class="st4" />
		<path
   style="fill:#ffffff"
   inkscape:connector-curvature="0"
   id="path934"
   d="m 351.13,215.69 c 6.32,0 11.76,3.68 14.34,9.01 h 90.46 v 14.29 h -90.65 c -2.66,5.11 -7.99,8.61 -14.15,8.61 -8.81,0 -15.95,-7.14 -15.95,-15.95 0,-8.82 7.14,-15.96 15.95,-15.96 m 0,-6 c -12.1,0 -21.95,9.85 -21.95,21.95 0,12.1 9.85,21.95 21.95,21.95 6.92,0 13.31,-3.22 17.42,-8.61 h 87.38 6 v -6 -14.29 -6 h -6 -87.08 c -4.09,-5.63 -10.58,-9 -17.72,-9 z"
   class="st5" />
	</g><g
   id="g942"
   transform="translate(3,-25.600006)">
		<path
   style="fill:#1e1e1e"
   inkscape:connector-curvature="0"
   id="path938"
   d="m 351.13,301.79 c -10.45,0 -18.95,-8.5 -18.95,-18.95 0,-10.45 8.5,-18.95 18.95,-18.95 6.66,0 12.68,3.41 16.12,9.01 h 91.69 v 20.29 H 367 c -3.49,5.34 -9.41,8.6 -15.87,8.6 z"
   class="st4" />
		<path
   style="fill:#ffffff"
   inkscape:connector-curvature="0"
   id="path940"
   d="m 351.13,266.89 c 6.32,0 11.76,3.68 14.34,9.01 h 90.46 v 14.29 h -90.65 c -2.66,5.11 -7.99,8.61 -14.15,8.61 -8.81,0 -15.95,-7.14 -15.95,-15.95 0,-8.82 7.14,-15.96 15.95,-15.96 m 0,-6 c -12.1,0 -21.95,9.85 -21.95,21.95 0,12.1 9.85,21.95 21.95,21.95 6.92,0 13.31,-3.22 17.42,-8.61 h 87.38 6 v -6 -14.29 -6 h -6 -87.08 c -4.09,-5.63 -10.58,-9 -17.72,-9 z"
   class="st5" />
	</g><g
   id="g948"
   transform="translate(3,-12.800003)">
		<path
   style="fill:#1e1e1e"
   inkscape:connector-curvature="0"
   id="path944"
   d="m 351.13,352.99 c -10.45,0 -18.95,-8.5 -18.95,-18.95 0,-10.45 8.5,-18.95 18.95,-18.95 6.66,0 12.68,3.41 16.12,9.01 h 91.69 v 20.29 H 367 c -3.49,5.34 -9.41,8.6 -15.87,8.6 z"
   class="st4" />
		<path
   style="fill:#ffffff"
   inkscape:connector-curvature="0"
   id="path946"
   d="m 351.13,318.09 c 6.32,0 11.76,3.68 14.34,9.01 h 90.46 v 14.29 h -90.65 c -2.66,5.11 -7.99,8.61 -14.15,8.61 -8.81,0 -15.95,-7.14 -15.95,-15.95 0,-8.82 7.14,-15.96 15.95,-15.96 m 0,-6 c -12.1,0 -21.95,9.85 -21.95,21.95 0,12.1 9.85,21.95 21.95,21.95 6.92,0 13.31,-3.22 17.42,-8.61 h 87.38 6 v -6 -14.29 -6 h -6 -87.08 c -4.09,-5.63 -10.58,-9 -17.72,-9 z"
   class="st5" />
	</g><g
   id="g954"
   transform="translate(3)">
		<path
   style="fill:#1e1e1e"
   inkscape:connector-curvature="0"
   id="path950"
   d="m 351.13,404.19 c -10.45,0 -18.95,-8.5 -18.95,-18.95 0,-10.45 8.5,-18.95 18.95,-18.95 6.66,0 12.68,3.41 16.12,9.01 h 91.69 v 20.29 H 367 c -3.49,5.34 -9.41,8.6 -15.87,8.6 z"
   class="st4" />
		<path
   style="fill:#ffffff"
   inkscape:connector-curvature="0"
   id="path952"
   d="m 351.13,369.29 c 6.32,0 11.76,3.68 14.34,9.01 h 90.46 v 14.29 h -90.65 c -2.66,5.11 -7.99,8.61 -14.15,8.61 -8.81,0 -15.95,-7.14 -15.95,-15.95 0,-8.82 7.14,-15.96 15.95,-15.96 m 0,-6 c -12.1,0 -21.95,9.85 -21.95,21.95 0,12.1 9.85,21.95 21.95,21.95 6.92,0 13.31,-3.22 17.42,-8.61 h 87.38 6 v -6 -14.29 -6 h -6 -87.08 c -4.09,-5.63 -10.58,-9 -17.72,-9 z"
   class="st5" />
	</g>
</svg>